<svg xmlns="http://www.w3.org/2000/svg" viewBox="0 0 512 512">
  <rect width="512" height="512" rx="128" fill="#4F46E5"/>
  <path d="M368 192H328V160C328 120.2 295.8 88 256 88C216.2 88 184 120.2 184 160V192H144C126.3 192 112 206.3 112 224V416C112 433.7 126.3 448 144 448H368C385.7 448 400 433.7 400 416V224C400 206.3 385.7 192 368 192ZM256 128C273.7 128 288 142.3 288 160V192H224V160C224 142.3 238.3 128 256 128ZM360 408H152V232H360V408Z" fill="white"/>
  <path d="M256 280C238.3 280 224 294.3 224 312C224 329.7 238.3 344 256 344C273.7 344 288 329.7 288 312C288 294.3 273.7 280 256 280Z" fill="white"/>
</svg>
